<svg width="160" height="160" viewBox="0 0 160 160" fill="none" xmlns="http://www.w3.org/2000/svg">
<path fill-rule="evenodd" clip-rule="evenodd" d="M51.9697 46H62.4242V51.5758H97.2727V46H107.727V51.5758H114V115H45V51.5758H51.9697V46ZM108.424 68.303H50.5758V109.424H108.424V68.303Z" fill="#281F15"/>
<path fill-rule="evenodd" clip-rule="evenodd" d="M51.9697 46H62.4242V51.5758H97.2727V46H107.727V51.5758H114V115H45V51.5758H51.9697V46ZM108.424 68.303H50.5758V109.424H108.424V68.303Z" fill="#281F15"/>
<path fill-rule="evenodd" clip-rule="evenodd" d="M51.9697 46H62.4242V51.5758H97.2727V46H107.727V51.5758H114V115H45V51.5758H51.9697V46ZM108.424 68.303H50.5758V109.424H108.424V68.303Z" fill="#281F15"/>
</svg>
